STARTFONT 2.1
FONT -FontForge-ProggyOptiCyr-Medium-R-Normal--11-80-96-96-P-70-ISO10646-1
SIZE 8 96 96
FONTBOUNDINGBOX 7 11 0 -2
COMMENT "Generated by fontforge, http://fontforge.sourceforge.net"
COMMENT "Created by ,,, with FontForge 2.0 (http://fontforge.sf.net)"
STARTPROPERTIES 33
FOUNDRY "FontForge"
FAMILY_NAME "ProggyOptiCyr"
WEIGHT_NAME "Medium"
SLANT "R"
SETWIDTH_NAME "Normal"
ADD_STYLE_NAME ""
PIXEL_SIZE 11
POINT_SIZE 80
RESOLUTION_X 96
RESOLUTION_Y 96
SPACING "P"
AVERAGE_WIDTH 70
CHARSET_REGISTRY "ISO10646"
CHARSET_ENCODING "1"
FONTNAME_REGISTRY ""
CHARSET_COLLECTIONS "ISO8859-5 ISO10646-1"
FONT_NAME "ProggyOptiCyr"
FACE_NAME "ProggyOptiCyr"
FONT_VERSION "001.000"
FONT_ASCENT 9
FONT_DESCENT 2
UNDERLINE_POSITION -1
UNDERLINE_THICKNESS 1
X_HEIGHT 5
CAP_HEIGHT 7
RAW_ASCENT 818
RAW_DESCENT 182
NORM_SPACE 7
RELATIVE_WEIGHT 50
RELATIVE_SETWIDTH 50
FIGURE_WIDTH 7
AVG_LOWERCASE_WIDTH 70
AVG_UPPERCASE_WIDTH 72
ENDPROPERTIES
CHARS 310
STARTCHAR $10
ENCODING 10
SWIDTH 7000 0
DWIDTH 7 0
BBX 1 1 6 -2
BITMAP
00
ENDCHAR
STARTCHAR $11
ENCODING 11
SWIDTH 7000 0
DWIDTH 7 0
BBX 1 1 6 -2
BITMAP
00
ENDCHAR
STARTCHAR $12
ENCODING 12
SWIDTH 7000 0
DWIDTH 7 0
BBX 1 1 6 -2
BITMAP
00
ENDCHAR
STARTCHAR $13
ENCODING 13
SWIDTH 7000 0
DWIDTH 7 0
BBX 1 1 6 -2
BITMAP
00
ENDCHAR
STARTCHAR $14
ENCODING 14
SWIDTH 7000 0
DWIDTH 7 0
BBX 1 1 6 -2
BITMAP
00
ENDCHAR
STARTCHAR $15
ENCODING 15
SWIDTH 7000 0
DWIDTH 7 0
BBX 1 1 6 -2
BITMAP
00
ENDCHAR
STARTCHAR $16
ENCODING 16
SWIDTH 7000 0
DWIDTH 7 0
BBX 1 1 6 -2
BITMAP
00
ENDCHAR
STARTCHAR $17
ENCODING 17
SWIDTH 7000 0
DWIDTH 7 0
BBX 1 1 6 -2
BITMAP
00
ENDCHAR
STARTCHAR $18
ENCODING 18
SWIDTH 7000 0
DWIDTH 7 0
BBX 1 1 6 -2
BITMAP
00
ENDCHAR
STARTCHAR $19
ENCODING 19
SWIDTH 7000 0
DWIDTH 7 0
BBX 1 1 6 -2
BITMAP
00
ENDCHAR
STARTCHAR $20
ENCODING 20
SWIDTH 7000 0
DWIDTH 7 0
BBX 1 1 6 -2
BITMAP
00
ENDCHAR
STARTCHAR $21
ENCODING 21
SWIDTH 7000 0
DWIDTH 7 0
BBX 1 1 6 -2
BITMAP
00
ENDCHAR
STARTCHAR $22
ENCODING 22
SWIDTH 7000 0
DWIDTH 7 0
BBX 1 1 6 -2
BITMAP
00
ENDCHAR
STARTCHAR $23
ENCODING 23
SWIDTH 7000 0
DWIDTH 7 0
BBX 1 1 6 -2
BITMAP
00
ENDCHAR
STARTCHAR $24
ENCODING 24
SWIDTH 7000 0
DWIDTH 7 0
BBX 1 1 6 -2
BITMAP
00
ENDCHAR
STARTCHAR $25
ENCODING 25
SWIDTH 7000 0
DWIDTH 7 0
BBX 1 1 6 -2
BITMAP
00
ENDCHAR
STARTCHAR $26
ENCODING 26
SWIDTH 7000 0
DWIDTH 7 0
BBX 1 1 6 -2
BITMAP
00
ENDCHAR
STARTCHAR $27
ENCODING 27
SWIDTH 7000 0
DWIDTH 7 0
BBX 1 1 6 -2
BITMAP
00
ENDCHAR
STARTCHAR $28
ENCODING 28
SWIDTH 7000 0
DWIDTH 7 0
BBX 1 1 6 -2
BITMAP
00
ENDCHAR
STARTCHAR $29
ENCODING 29
SWIDTH 7000 0
DWIDTH 7 0
BBX 1 1 6 -2
BITMAP
00
ENDCHAR
STARTCHAR $30
ENCODING 30
SWIDTH 7000 0
DWIDTH 7 0
BBX 1 1 6 -2
BITMAP
00
ENDCHAR
STARTCHAR $31
ENCODING 31
SWIDTH 7000 0
DWIDTH 7 0
BBX 1 1 6 -2
BITMAP
00
ENDCHAR
STARTCHAR $32
ENCODING 32
SWIDTH 7000 0
DWIDTH 7 0
BBX 1 1 6 -2
BITMAP
00
ENDCHAR
STARTCHAR $33
ENCODING 33
SWIDTH 7000 0
DWIDTH 7 0
BBX 1 8 3 0
BITMAP
80
80
80
80
80
80
00
80
ENDCHAR
STARTCHAR $34
ENCODING 34
SWIDTH 7000 0
DWIDTH 7 0
BBX 3 3 2 6
BITMAP
A0
A0
A0
ENDCHAR
STARTCHAR $35
ENCODING 35
SWIDTH 7000 0
DWIDTH 7 0
BBX 6 9 0 -1
BITMAP
48
48
FC
48
48
48
FC
48
48
ENDCHAR
STARTCHAR $36
ENCODING 36
SWIDTH 7000 0
DWIDTH 7 0
BBX 5 9 1 -1
BITMAP
20
78
A0
A0
70
28
28
F0
20
ENDCHAR
STARTCHAR $37
ENCODING 37
SWIDTH 7000 0
DWIDTH 7 0
BBX 6 8 0 0
BITMAP
40
A4
A8
50
28
54
94
08
ENDCHAR
STARTCHAR $38
ENCODING 38
SWIDTH 7000 0
DWIDTH 7 0
BBX 6 8 0 0
BITMAP
60
90
90
60
94
88
88
74
ENDCHAR
STARTCHAR $39
ENCODING 39
SWIDTH 7000 0
DWIDTH 7 0
BBX 2 3 2 6
BITMAP
40
40
80
ENDCHAR
STARTCHAR $40
ENCODING 40
SWIDTH 7000 0
DWIDTH 7 0
BBX 3 11 2 -2
BITMAP
20
40
40
80
80
80
80
80
40
40
20
ENDCHAR
STARTCHAR $41
ENCODING 41
SWIDTH 7000 0
DWIDTH 7 0
BBX 3 11 2 -2
BITMAP
80
40
40
20
20
20
20
20
40
40
80
ENDCHAR
STARTCHAR $42
ENCODING 42
SWIDTH 7000 0
DWIDTH 7 0
BBX 5 5 1 1
BITMAP
20
A8
70
A8
20
ENDCHAR
STARTCHAR $43
ENCODING 43
SWIDTH 7000 0
DWIDTH 7 0
BBX 5 5 1 1
BITMAP
20
20
F8
20
20
ENDCHAR
STARTCHAR $44
ENCODING 44
SWIDTH 7000 0
DWIDTH 7 0
BBX 2 3 2 -2
BITMAP
40
40
80
ENDCHAR
STARTCHAR $45
ENCODING 45
SWIDTH 7000 0
DWIDTH 7 0
BBX 5 1 1 3
BITMAP
F8
ENDCHAR
STARTCHAR $46
ENCODING 46
SWIDTH 7000 0
DWIDTH 7 0
BBX 1 1 3 0
BITMAP
80
ENDCHAR
STARTCHAR $47
ENCODING 47
SWIDTH 7000 0
DWIDTH 7 0
BBX 5 10 1 -1
BITMAP
08
08
10
10
20
20
40
40
80
80
ENDCHAR
STARTCHAR $48
ENCODING 48
SWIDTH 7000 0
DWIDTH 7 0
BBX 6 8 0 0
BITMAP
78
84
84
94
A4
84
84
78
ENDCHAR
STARTCHAR $49
ENCODING 49
SWIDTH 7000 0
DWIDTH 7 0
BBX 5 8 1 0
BITMAP
20
60
A0
20
20
20
20
F8
ENDCHAR
STARTCHAR $50
ENCODING 50
SWIDTH 7000 0
DWIDTH 7 0
BBX 6 8 0 0
BITMAP
78
84
04
08
30
40
80
FC
ENDCHAR
STARTCHAR $51
ENCODING 51
SWIDTH 7000 0
DWIDTH 7 0
BBX 6 8 0 0
BITMAP
78
84
04
38
04
04
84
78
ENDCHAR
STARTCHAR $52
ENCODING 52
SWIDTH 7000 0
DWIDTH 7 0
BBX 6 8 0 0
BITMAP
08
18
28
48
88
FC
08
08
ENDCHAR
STARTCHAR $53
ENCODING 53
SWIDTH 7000 0
DWIDTH 7 0
BBX 6 8 0 0
BITMAP
FC
80
80
F8
04
04
84
78
ENDCHAR
STARTCHAR $54
ENCODING 54
SWIDTH 7000 0
DWIDTH 7 0
BBX 6 8 0 0
BITMAP
38
40
80
F8
84
84
84
78
ENDCHAR
STARTCHAR $55
ENCODING 55
SWIDTH 7000 0
DWIDTH 7 0
BBX 6 8 0 0
BITMAP
FC
04
08
10
20
20
20
20
ENDCHAR
STARTCHAR $56
ENCODING 56
SWIDTH 7000 0
DWIDTH 7 0
BBX 6 8 0 0
BITMAP
78
84
84
78
84
84
84
78
ENDCHAR
STARTCHAR $57
ENCODING 57
SWIDTH 7000 0
DWIDTH 7 0
BBX 6 8 0 0
BITMAP
78
84
84
84
7C
04
08
70
ENDCHAR
STARTCHAR $58
ENCODING 58
SWIDTH 7000 0
DWIDTH 7 0
BBX 1 5 3 1
BITMAP
80
00
00
00
80
ENDCHAR
STARTCHAR $59
ENCODING 59
SWIDTH 7000 0
DWIDTH 7 0
BBX 2 7 2 -2
BITMAP
40
00
00
00
40
40
80
ENDCHAR
STARTCHAR $60
ENCODING 60
SWIDTH 7000 0
DWIDTH 7 0
BBX 4 7 1 0
BITMAP
10
20
40
80
40
20
10
ENDCHAR
STARTCHAR $61
ENCODING 61
SWIDTH 7000 0
DWIDTH 7 0
BBX 5 3 1 2
BITMAP
F8
00
F8
ENDCHAR
STARTCHAR $62
ENCODING 62
SWIDTH 7000 0
DWIDTH 7 0
BBX 4 7 2 0
BITMAP
80
40
20
10
20
40
80
ENDCHAR
STARTCHAR $63
ENCODING 63
SWIDTH 7000 0
DWIDTH 7 0
BBX 5 8 1 0
BITMAP
70
88
08
10
20
20
00
20
ENDCHAR
STARTCHAR $64
ENCODING 64
SWIDTH 7000 0
DWIDTH 7 0
BBX 7 8 0 0
BITMAP
38
44
9A
AA
AA
9C
40
3C
ENDCHAR
STARTCHAR $65
ENCODING 65
SWIDTH 7000 0
DWIDTH 7 0
BBX 6 8 0 0
BITMAP
78
84
84
84
FC
84
84
84
ENDCHAR
STARTCHAR $66
ENCODING 66
SWIDTH 7000 0
DWIDTH 7 0
BBX 6 8 0 0
BITMAP
F8
84
84
F8
84
84
84
F8
ENDCHAR
STARTCHAR $67
ENCODING 67
SWIDTH 7000 0
DWIDTH 7 0
BBX 6 8 0 0
BITMAP
78
84
80
80
80
80
84
78
ENDCHAR
STARTCHAR $68
ENCODING 68
SWIDTH 7000 0
DWIDTH 7 0
BBX 6 8 0 0
BITMAP
F0
88
84
84
84
84
88
F0
ENDCHAR
STARTCHAR $69
ENCODING 69
SWIDTH 7000 0
DWIDTH 7 0
BBX 6 8 0 0
BITMAP
FC
80
80
F0
80
80
80
FC
ENDCHAR
STARTCHAR $70
ENCODING 70
SWIDTH 7000 0
DWIDTH 7 0
BBX 6 8 0 0
BITMAP
FC
80
80
F0
80
80
80
80
ENDCHAR
STARTCHAR $71
ENCODING 71
SWIDTH 7000 0
DWIDTH 7 0
BBX 6 8 0 0
BITMAP
78
84
80
80
9C
84
84
78
ENDCHAR
STARTCHAR $72
ENCODING 72
SWIDTH 7000 0
DWIDTH 7 0
BBX 6 8 0 0
BITMAP
84
84
84
84
FC
84
84
84
ENDCHAR
STARTCHAR $73
ENCODING 73
SWIDTH 7000 0
DWIDTH 7 0
BBX 3 8 2 0
BITMAP
E0
40
40
40
40
40
40
E0
ENDCHAR
STARTCHAR $74
ENCODING 74
SWIDTH 7000 0
DWIDTH 7 0
BBX 5 8 1 0
BITMAP
38
08
08
08
08
08
08
F0
ENDCHAR
STARTCHAR $75
ENCODING 75
SWIDTH 7000 0
DWIDTH 7 0
BBX 6 8 0 0
BITMAP
84
88
90
E0
E0
90
88
84
ENDCHAR
STARTCHAR $76
ENCODING 76
SWIDTH 7000 0
DWIDTH 7 0
BBX 6 8 0 0
BITMAP
80
80
80
80
80
80
80
FC
ENDCHAR
STARTCHAR $77
ENCODING 77
SWIDTH 7000 0
DWIDTH 7 0
BBX 6 8 0 0
BITMAP
84
CC
B4
84
84
84
84
84
ENDCHAR
STARTCHAR $78
ENCODING 78
SWIDTH 7000 0
DWIDTH 7 0
BBX 6 8 0 0
BITMAP
84
C4
A4
94
8C
84
84
84
ENDCHAR
STARTCHAR $79
ENCODING 79
SWIDTH 7000 0
DWIDTH 7 0
BBX 6 8 0 0
BITMAP
78
84
84
84
84
84
84
78
ENDCHAR
STARTCHAR $80
ENCODING 80
SWIDTH 7000 0
DWIDTH 7 0
BBX 6 8 0 0
BITMAP
F8
84
84
F8
80
80
80
80
ENDCHAR
STARTCHAR $81
ENCODING 81
SWIDTH 7000 0
DWIDTH 7 0
BBX 7 9 0 -1
BITMAP
78
84
84
84
84
84
8C
7C
02
ENDCHAR
STARTCHAR $82
ENCODING 82
SWIDTH 7000 0
DWIDTH 7 0
BBX 6 8 0 0
BITMAP
F8
84
84
F8
A0
90
88
84
ENDCHAR
STARTCHAR $83
ENCODING 83
SWIDTH 7000 0
DWIDTH 7 0
BBX 6 8 0 0
BITMAP
78
84
80
78
04
04
84
78
ENDCHAR
STARTCHAR $84
ENCODING 84
SWIDTH 7000 0
DWIDTH 7 0
BBX 5 8 1 0
BITMAP
F8
20
20
20
20
20
20
20
ENDCHAR
STARTCHAR $85
ENCODING 85
SWIDTH 7000 0
DWIDTH 7 0
BBX 6 8 0 0
BITMAP
84
84
84
84
84
84
84
78
ENDCHAR
STARTCHAR $86
ENCODING 86
SWIDTH 7000 0
DWIDTH 7 0
BBX 6 8 0 0
BITMAP
84
84
84
48
48
48
30
30
ENDCHAR
STARTCHAR $87
ENCODING 87
SWIDTH 7000 0
DWIDTH 7 0
BBX 6 8 0 0
BITMAP
84
84
84
84
B4
B4
48
48
ENDCHAR
STARTCHAR $88
ENCODING 88
SWIDTH 7000 0
DWIDTH 7 0
BBX 6 8 0 0
BITMAP
84
84
48
30
30
48
84
84
ENDCHAR
STARTCHAR $89
ENCODING 89
SWIDTH 7000 0
DWIDTH 7 0
BBX 5 8 1 0
BITMAP
88
88
88
50
20
20
20
20
ENDCHAR
STARTCHAR $90
ENCODING 90
SWIDTH 7000 0
DWIDTH 7 0
BBX 6 8 0 0
BITMAP
FC
04
08
10
20
40
80
FC
ENDCHAR
STARTCHAR $91
ENCODING 91
SWIDTH 7000 0
DWIDTH 7 0
BBX 3 10 2 -1
BITMAP
E0
80
80
80
80
80
80
80
80
E0
ENDCHAR
STARTCHAR $92
ENCODING 92
SWIDTH 7000 0
DWIDTH 7 0
BBX 5 10 1 -1
BITMAP
80
80
40
40
20
20
10
10
08
08
ENDCHAR
STARTCHAR $93
ENCODING 93
SWIDTH 7000 0
DWIDTH 7 0
BBX 3 10 2 -1
BITMAP
E0
20
20
20
20
20
20
20
20
E0
ENDCHAR
STARTCHAR $94
ENCODING 94
SWIDTH 7000 0
DWIDTH 7 0
BBX 5 3 1 5
BITMAP
20
50
88
ENDCHAR
STARTCHAR $95
ENCODING 95
SWIDTH 7000 0
DWIDTH 7 0
BBX 7 1 0 -1
BITMAP
FE
ENDCHAR
STARTCHAR $96
ENCODING 96
SWIDTH 7000 0
DWIDTH 7 0
BBX 2 3 2 6
BITMAP
80
80
40
ENDCHAR
STARTCHAR $97
ENCODING 97
SWIDTH 7000 0
DWIDTH 7 0
BBX 6 6 0 0
BITMAP
78
04
7C
84
84
7C
ENDCHAR
STARTCHAR $98
ENCODING 98
SWIDTH 7000 0
DWIDTH 7 0
BBX 6 9 0 0
BITMAP
80
80
80
B8
C4
84
84
84
F8
ENDCHAR
STARTCHAR $99
ENCODING 99
SWIDTH 7000 0
DWIDTH 7 0
BBX 6 6 0 0
BITMAP
78
84
80
80
84
78
ENDCHAR
STARTCHAR $100
ENCODING 100
SWIDTH 7000 0
DWIDTH 7 0
BBX 6 9 0 0
BITMAP
04
04
04
74
8C
84
84
84
7C
ENDCHAR
STARTCHAR $101
ENCODING 101
SWIDTH 7000 0
DWIDTH 7 0
BBX 6 6 0 0
BITMAP
78
84
FC
80
84
78
ENDCHAR
STARTCHAR $102
ENCODING 102
SWIDTH 7000 0
DWIDTH 7 0
BBX 5 8 1 0
BITMAP
38
40
40
40
F0
40
40
40
ENDCHAR
STARTCHAR $103
ENCODING 103
SWIDTH 7000 0
DWIDTH 7 0
BBX 6 8 0 -2
BITMAP
7C
84
84
84
8C
74
04
78
ENDCHAR
STARTCHAR $104
ENCODING 104
SWIDTH 7000 0
DWIDTH 7 0
BBX 6 9 0 0
BITMAP
80
80
80
B8
C4
84
84
84
84
ENDCHAR
STARTCHAR $105
ENCODING 105
SWIDTH 7000 0
DWIDTH 7 0
BBX 2 8 2 0
BITMAP
40
00
C0
40
40
40
40
40
ENDCHAR
STARTCHAR $106
ENCODING 106
SWIDTH 7000 0
DWIDTH 7 0
BBX 5 10 0 -2
BITMAP
08
00
18
08
08
08
08
08
88
70
ENDCHAR
STARTCHAR $107
ENCODING 107
SWIDTH 7000 0
DWIDTH 7 0
BBX 5 9 1 0
BITMAP
80
80
80
88
90
E0
90
88
88
ENDCHAR
STARTCHAR $108
ENCODING 108
SWIDTH 7000 0
DWIDTH 7 0
BBX 2 9 2 0
BITMAP
C0
40
40
40
40
40
40
40
40
ENDCHAR
STARTCHAR $109
ENCODING 109
SWIDTH 7000 0
DWIDTH 7 0
BBX 5 6 1 0
BITMAP
D0
A8
A8
A8
A8
A8
ENDCHAR
STARTCHAR $110
ENCODING 110
SWIDTH 7000 0
DWIDTH 7 0
BBX 6 6 0 0
BITMAP
B8
C4
84
84
84
84
ENDCHAR
STARTCHAR $111
ENCODING 111
SWIDTH 7000 0
DWIDTH 7 0
BBX 6 6 0 0
BITMAP
78
84
84
84
84
78
ENDCHAR
STARTCHAR $112
ENCODING 112
SWIDTH 7000 0
DWIDTH 7 0
BBX 6 8 0 -2
BITMAP
F8
84
84
84
84
F8
80
80
ENDCHAR
STARTCHAR $113
ENCODING 113
SWIDTH 7000 0
DWIDTH 7 0
BBX 6 8 0 -2
BITMAP
7C
84
84
84
84
7C
04
04
ENDCHAR
STARTCHAR $114
ENCODING 114
SWIDTH 7000 0
DWIDTH 7 0
BBX 6 6 0 0
BITMAP
B8
C4
80
80
80
80
ENDCHAR
STARTCHAR $115
ENCODING 115
SWIDTH 7000 0
DWIDTH 7 0
BBX 6 6 0 0
BITMAP
7C
80
78
04
04
F8
ENDCHAR
STARTCHAR $116
ENCODING 116
SWIDTH 7000 0
DWIDTH 7 0
BBX 5 9 1 0
BITMAP
80
80
80
F0
80
80
80
88
70
ENDCHAR
STARTCHAR $117
ENCODING 117
SWIDTH 7000 0
DWIDTH 7 0
BBX 6 6 0 0
BITMAP
84
84
84
84
8C
74
ENDCHAR
STARTCHAR $118
ENCODING 118
SWIDTH 7000 0
DWIDTH 7 0
BBX 6 6 0 0
BITMAP
84
84
84
48
48
30
ENDCHAR
STARTCHAR $119
ENCODING 119
SWIDTH 7000 0
DWIDTH 7 0
BBX 6 6 0 0
BITMAP
84
84
84
84
B4
48
ENDCHAR
STARTCHAR $120
ENCODING 120
SWIDTH 7000 0
DWIDTH 7 0
BBX 6 6 0 0
BITMAP
84
48
30
30
48
84
ENDCHAR
STARTCHAR $121
ENCODING 121
SWIDTH 7000 0
DWIDTH 7 0
BBX 6 8 0 -2
BITMAP
84
84
84
84
8C
74
04
78
ENDCHAR
STARTCHAR $122
ENCODING 122
SWIDTH 7000 0
DWIDTH 7 0
BBX 6 6 0 0
BITMAP
FC
08
10
20
40
FC
ENDCHAR
STARTCHAR $123
ENCODING 123
SWIDTH 7000 0
DWIDTH 7 0
BBX 3 11 2 -2
BITMAP
20
40
40
40
40
80
40
40
40
40
20
ENDCHAR
STARTCHAR $124
ENCODING 124
SWIDTH 7000 0
DWIDTH 7 0
BBX 1 10 3 -1
BITMAP
80
80
80
80
80
80
80
80
80
80
ENDCHAR
STARTCHAR $125
ENCODING 125
SWIDTH 7000 0
DWIDTH 7 0
BBX 3 11 2 -2
BITMAP
80
40
40
40
40
20
40
40
40
40
80
ENDCHAR
STARTCHAR $126
ENCODING 126
SWIDTH 7000 0
DWIDTH 7 0
BBX 6 2 0 2
BITMAP
64
98
ENDCHAR
STARTCHAR $127
ENCODING 127
SWIDTH 7000 0
DWIDTH 7 0
BBX 1 1 6 -2
BITMAP
00
ENDCHAR
STARTCHAR uni0080
ENCODING 128
SWIDTH 636 0
DWIDTH 7 0
BBX 6 9 0 0
BITMAP
38
44
40
F0
40
F0
40
44
38
ENDCHAR
STARTCHAR uni0081
ENCODING 129
SWIDTH 636 0
DWIDTH 7 0
BBX 1 1 6 -2
BITMAP
00
ENDCHAR
STARTCHAR uni0082
ENCODING 130
SWIDTH 636 0
DWIDTH 7 0
BBX 2 3 2 -2
BITMAP
40
40
80
ENDCHAR
STARTCHAR uni0083
ENCODING 131
SWIDTH 636 0
DWIDTH 7 0
BBX 5 11 1 -2
BITMAP
18
20
20
20
70
20
20
20
20
20
C0
ENDCHAR
STARTCHAR uni0084
ENCODING 132
SWIDTH 636 0
DWIDTH 7 0
BBX 4 3 1 -2
BITMAP
50
50
A0
ENDCHAR
STARTCHAR uni0085
ENCODING 133
SWIDTH 636 0
DWIDTH 7 0
BBX 5 1 1 0
BITMAP
A8
ENDCHAR
STARTCHAR uni0086
ENCODING 134
SWIDTH 636 0
DWIDTH 7 0
BBX 5 9 1 -1
BITMAP
20
20
20
F8
20
20
20
20
20
ENDCHAR
STARTCHAR uni0087
ENCODING 135
SWIDTH 636 0
DWIDTH 7 0
BBX 5 9 1 -1
BITMAP
20
20
F8
20
F8
20
20
20
20
ENDCHAR
STARTCHAR uni0088
ENCODING 136
SWIDTH 636 0
DWIDTH 7 0
BBX 3 2 2 6
BITMAP
40
A0
ENDCHAR
STARTCHAR uni0089
ENCODING 137
SWIDTH 636 0
DWIDTH 7 0
BBX 6 10 0 -1
BITMAP
40
A4
A8
50
20
40
A8
54
54
28
ENDCHAR
STARTCHAR uni008A
ENCODING 138
SWIDTH 636 0
DWIDTH 7 0
BBX 6 8 0 0
BITMAP
28
10
7C
80
78
04
04
F8
ENDCHAR
STARTCHAR uni008B
ENCODING 139
SWIDTH 636 0
DWIDTH 7 0
BBX 3 5 2 0
BITMAP
20
40
80
40
20
ENDCHAR
STARTCHAR uni008C
ENCODING 140
SWIDTH 636 0
DWIDTH 7 0
BBX 6 8 0 0
BITMAP
7C
90
90
98
90
90
90
7C
ENDCHAR
STARTCHAR uni008D
ENCODING 141
SWIDTH 636 0
DWIDTH 7 0
BBX 1 1 6 -2
BITMAP
00
ENDCHAR
STARTCHAR uni008E
ENCODING 142
SWIDTH 636 0
DWIDTH 7 0
BBX 6 8 0 0
BITMAP
50
20
FC
08
10
20
40
FC
ENDCHAR
STARTCHAR uni008F
ENCODING 143
SWIDTH 636 0
DWIDTH 7 0
BBX 1 1 6 -2
BITMAP
00
ENDCHAR
STARTCHAR uni0090
ENCODING 144
SWIDTH 636 0
DWIDTH 7 0
BBX 1 1 6 -2
BITMAP
00
ENDCHAR
STARTCHAR uni0091
ENCODING 145
SWIDTH 636 0
DWIDTH 7 0
BBX 2 3 2 4
BITMAP
80
80
40
ENDCHAR
STARTCHAR uni0092
ENCODING 146
SWIDTH 636 0
DWIDTH 7 0
BBX 2 3 2 4
BITMAP
40
40
80
ENDCHAR
STARTCHAR uni0093
ENCODING 147
SWIDTH 636 0
DWIDTH 7 0
BBX 4 3 1 4
BITMAP
A0
A0
50
ENDCHAR
STARTCHAR uni0094
ENCODING 148
SWIDTH 636 0
DWIDTH 7 0
BBX 4 3 1 4
BITMAP
50
50
A0
ENDCHAR
STARTCHAR uni0095
ENCODING 149
SWIDTH 636 0
DWIDTH 7 0
BBX 4 4 1 1
BITMAP
F0
F0
F0
F0
ENDCHAR
STARTCHAR uni0096
ENCODING 150
SWIDTH 636 0
DWIDTH 7 0
BBX 5 1 1 3
BITMAP
F8
ENDCHAR
STARTCHAR uni0097
ENCODING 151
SWIDTH 636 0
DWIDTH 7 0
BBX 7 1 0 3
BITMAP
FE
ENDCHAR
STARTCHAR uni0098
ENCODING 152
SWIDTH 636 0
DWIDTH 7 0
BBX 4 2 1 7
BITMAP
50
A0
ENDCHAR
STARTCHAR uni0099
ENCODING 153
SWIDTH 636 0
DWIDTH 7 0
BBX 6 3 0 6
BITMAP
F4
5C
54
ENDCHAR
STARTCHAR uni009A
ENCODING 154
SWIDTH 636 0
DWIDTH 7 0
BBX 6 8 0 0
BITMAP
28
10
7C
80
78
04
04
F8
ENDCHAR
STARTCHAR uni009B
ENCODING 155
SWIDTH 636 0
DWIDTH 7 0
BBX 3 5 2 0
BITMAP
80
40
20
40
80
ENDCHAR
STARTCHAR uni009C
ENCODING 156
SWIDTH 636 0
DWIDTH 7 0
BBX 6 6 0 0
BITMAP
58
A4
BC
A0
A0
5C
ENDCHAR
STARTCHAR uni009D
ENCODING 157
SWIDTH 636 0
DWIDTH 7 0
BBX 1 1 6 -2
BITMAP
00
ENDCHAR
STARTCHAR uni009E
ENCODING 158
SWIDTH 636 0
DWIDTH 7 0
BBX 6 8 0 0
BITMAP
50
20
FC
08
10
20
40
FC
ENDCHAR
STARTCHAR uni009F
ENCODING 159
SWIDTH 636 0
DWIDTH 7 0
BBX 5 9 1 0
BITMAP
50
00
88
88
50
20
20
20
20
ENDCHAR
STARTCHAR uni00A0
ENCODING 160
SWIDTH 636 0
DWIDTH 7 0
BBX 1 1 6 -2
BITMAP
00
ENDCHAR
STARTCHAR exclamdown
ENCODING 161
SWIDTH 636 0
DWIDTH 7 0
BBX 2 8 2 0
BITMAP
40
00
C0
40
40
40
40
40
ENDCHAR
STARTCHAR cent
ENCODING 162
SWIDTH 636 0
DWIDTH 7 0
BBX 5 7 1 -1
BITMAP
20
78
A0
A0
A0
78
20
ENDCHAR
STARTCHAR sterling
ENCODING 163
SWIDTH 636 0
DWIDTH 7 0
BBX 6 10 0 -2
BITMAP
38
44
40
40
F8
20
20
40
70
8C
ENDCHAR
STARTCHAR currency
ENCODING 164
SWIDTH 636 0
DWIDTH 7 0
BBX 6 6 0 0
BITMAP
84
78
48
48
78
84
ENDCHAR
STARTCHAR yen
ENCODING 165
SWIDTH 636 0
DWIDTH 7 0
BBX 5 8 1 0
BITMAP
88
88
50
F8
20
F8
20
20
ENDCHAR
STARTCHAR brokenbar
ENCODING 166
SWIDTH 636 0
DWIDTH 7 0
BBX 1 9 3 -1
BITMAP
80
80
80
00
00
00
80
80
80
ENDCHAR
STARTCHAR section
ENCODING 167
SWIDTH 636 0
DWIDTH 7 0
BBX 5 10 1 -2
BITMAP
70
88
40
A0
90
48
28
10
88
70
ENDCHAR
STARTCHAR dieresis
ENCODING 168
SWIDTH 636 0
DWIDTH 7 0
BBX 3 1 2 8
BITMAP
A0
ENDCHAR
STARTCHAR copyright
ENCODING 169
SWIDTH 636 0
DWIDTH 7 0
BBX 7 10 0 -1
BITMAP
38
44
82
BA
A2
A2
BA
82
44
38
ENDCHAR
STARTCHAR ordfeminine
ENCODING 170
SWIDTH 636 0
DWIDTH 7 0
BBX 1 1 6 -2
BITMAP
00
ENDCHAR
STARTCHAR guillemotleft
ENCODING 171
SWIDTH 636 0
DWIDTH 7 0
BBX 6 5 0 0
BITMAP
24
48
90
48
24
ENDCHAR
STARTCHAR logicalnot
ENCODING 172
SWIDTH 636 0
DWIDTH 7 0
BBX 7 3 0 1
BITMAP
FE
02
02
ENDCHAR
STARTCHAR uni00AD
ENCODING 173
SWIDTH 636 0
DWIDTH 7 0
BBX 5 1 1 3
BITMAP
F8
ENDCHAR
STARTCHAR registered
ENCODING 174
SWIDTH 636 0
DWIDTH 7 0
BBX 7 10 0 -1
BITMAP
38
44
82
BA
AA
B2
AA
82
44
38
ENDCHAR
STARTCHAR macron
ENCODING 175
SWIDTH 636 0
DWIDTH 7 0
BBX 7 1 0 8
BITMAP
FE
ENDCHAR
STARTCHAR degree
ENCODING 176
SWIDTH 636 0
DWIDTH 7 0
BBX 4 4 1 4
BITMAP
60
90
90
60
ENDCHAR
STARTCHAR plusminus
ENCODING 177
SWIDTH 636 0
DWIDTH 7 0
BBX 5 7 1 0
BITMAP
20
20
F8
20
20
00
F8
ENDCHAR
STARTCHAR uni00B2
ENCODING 178
SWIDTH 636 0
DWIDTH 7 0
BBX 3 5 2 4
BITMAP
C0
20
40
80
E0
ENDCHAR
STARTCHAR uni00B3
ENCODING 179
SWIDTH 636 0
DWIDTH 7 0
BBX 3 5 2 4
BITMAP
C0
20
40
20
C0
ENDCHAR
STARTCHAR acute
ENCODING 180
SWIDTH 636 0
DWIDTH 7 0
BBX 2 2 2 7
BITMAP
40
80
ENDCHAR
STARTCHAR uni00B5
ENCODING 181
SWIDTH 636 0
DWIDTH 7 0
BBX 6 8 0 -2
BITMAP
84
84
84
84
C4
B8
80
80
ENDCHAR
STARTCHAR paragraph
ENCODING 182
SWIDTH 636 0
DWIDTH 7 0
BBX 6 9 0 0
BITMAP
74
94
94
94
74
14
14
14
14
ENDCHAR
STARTCHAR periodcentered
ENCODING 183
SWIDTH 636 0
DWIDTH 7 0
BBX 2 2 2 2
BITMAP
C0
C0
ENDCHAR
STARTCHAR cedilla
ENCODING 184
SWIDTH 636 0
DWIDTH 7 0
BBX 2 2 2 -2
BITMAP
40
C0
ENDCHAR
STARTCHAR uni00B9
ENCODING 185
SWIDTH 636 0
DWIDTH 7 0
BBX 3 5 2 4
BITMAP
40
C0
40
40
E0
ENDCHAR
STARTCHAR ordmasculine
ENCODING 186
SWIDTH 636 0
DWIDTH 7 0
BBX 5 5 0 3
BITMAP
70
88
88
88
70
ENDCHAR
STARTCHAR guillemotright
ENCODING 187
SWIDTH 636 0
DWIDTH 7 0
BBX 6 5 0 0
BITMAP
90
48
24
48
90
ENDCHAR
STARTCHAR onequarter
ENCODING 188
SWIDTH 636 0
DWIDTH 7 0
BBX 6 10 0 -1
BITMAP
40
C4
48
50
20
48
98
28
7C
08
ENDCHAR
STARTCHAR onehalf
ENCODING 189
SWIDTH 636 0
DWIDTH 7 0
BBX 6 10 0 -1
BITMAP
40
C4
48
50
20
58
A4
08
10
3C
ENDCHAR
STARTCHAR threequarters
ENCODING 190
SWIDTH 636 0
DWIDTH 7 0
BBX 6 10 0 -1
BITMAP
C0
20
44
28
D0
28
58
A8
7C
08
ENDCHAR
STARTCHAR questiondown
ENCODING 191
SWIDTH 636 0
DWIDTH 7 0
BBX 5 8 1 -1
BITMAP
20
00
20
20
40
80
88
70
ENDCHAR
STARTCHAR Agrave
ENCODING 192
SWIDTH 636 0
DWIDTH 7 0
BBX 5 9 1 0
BITMAP
20
10
70
88
88
F8
88
88
88
ENDCHAR
STARTCHAR Aacute
ENCODING 193
SWIDTH 636 0
DWIDTH 7 0
BBX 5 9 1 0
BITMAP
20
40
70
88
88
F8
88
88
88
ENDCHAR
STARTCHAR Acircumflex
ENCODING 194
SWIDTH 636 0
DWIDTH 7 0
BBX 5 9 1 0
BITMAP
20
50
70
88
88
F8
88
88
88
ENDCHAR
STARTCHAR Atilde
ENCODING 195
SWIDTH 636 0
DWIDTH 7 0
BBX 5 9 1 0
BITMAP
28
50
70
88
88
F8
88
88
88
ENDCHAR
STARTCHAR Adieresis
ENCODING 196
SWIDTH 636 0
DWIDTH 7 0
BBX 5 9 1 0
BITMAP
50
00
70
88
88
F8
88
88
88
ENDCHAR
STARTCHAR Aring
ENCODING 197
SWIDTH 636 0
DWIDTH 7 0
BBX 5 9 1 0
BITMAP
20
50
20
70
88
88
F8
88
88
ENDCHAR
STARTCHAR AE
ENCODING 198
SWIDTH 636 0
DWIDTH 7 0
BBX 6 8 0 0
BITMAP
7C
90
90
F8
90
90
90
9C
ENDCHAR
STARTCHAR Ccedilla
ENCODING 199
SWIDTH 636 0
DWIDTH 7 0
BBX 6 10 0 -2
BITMAP
78
84
80
80
80
80
84
78
10
30
ENDCHAR
STARTCHAR Egrave
ENCODING 200
SWIDTH 636 0
DWIDTH 7 0
BBX 4 9 1 0
BITMAP
40
20
F0
80
80
E0
80
80
F0
ENDCHAR
STARTCHAR Eacute
ENCODING 201
SWIDTH 636 0
DWIDTH 7 0
BBX 4 9 1 0
BITMAP
20
40
F0
80
80
E0
80
80
F0
ENDCHAR
STARTCHAR Ecircumflex
ENCODING 202
SWIDTH 636 0
DWIDTH 7 0
BBX 4 9 1 0
BITMAP
20
50
F0
80
80
E0
80
80
F0
ENDCHAR
STARTCHAR Edieresis
ENCODING 203
SWIDTH 636 0
DWIDTH 7 0
BBX 4 9 1 0
BITMAP
50
00
F0
80
80
E0
80
80
F0
ENDCHAR
STARTCHAR Igrave
ENCODING 204
SWIDTH 636 0
DWIDTH 7 0
BBX 3 9 2 0
BITMAP
80
40
00
E0
40
40
40
40
E0
ENDCHAR
STARTCHAR Iacute
ENCODING 205
SWIDTH 636 0
DWIDTH 7 0
BBX 3 9 2 0
BITMAP
20
40
00
E0
40
40
40
40
E0
ENDCHAR
STARTCHAR Icircumflex
ENCODING 206
SWIDTH 636 0
DWIDTH 7 0
BBX 3 9 2 0
BITMAP
40
A0
00
E0
40
40
40
40
E0
ENDCHAR
STARTCHAR Idieresis
ENCODING 207
SWIDTH 636 0
DWIDTH 7 0
BBX 3 8 2 0
BITMAP
A0
00
E0
40
40
40
40
E0
ENDCHAR
STARTCHAR Eth
ENCODING 208
SWIDTH 636 0
DWIDTH 7 0
BBX 6 8 0 0
BITMAP
78
44
44
F4
44
44
44
78
ENDCHAR
STARTCHAR Ntilde
ENCODING 209
SWIDTH 636 0
DWIDTH 7 0
BBX 6 9 0 0
BITMAP
28
50
00
84
C4
A4
94
8C
84
ENDCHAR
STARTCHAR Ograve
ENCODING 210
SWIDTH 636 0
DWIDTH 7 0
BBX 6 9 0 0
BITMAP
20
10
78
84
84
84
84
84
78
ENDCHAR
STARTCHAR Oacute
ENCODING 211
SWIDTH 636 0
DWIDTH 7 0
BBX 6 9 0 0
BITMAP
10
20
78
84
84
84
84
84
78
ENDCHAR
STARTCHAR Ocircumflex
ENCODING 212
SWIDTH 636 0
DWIDTH 7 0
BBX 6 9 0 0
BITMAP
10
28
78
84
84
84
84
84
78
ENDCHAR
STARTCHAR Otilde
ENCODING 213
SWIDTH 636 0
DWIDTH 7 0
BBX 6 9 0 0
BITMAP
28
50
78
84
84
84
84
84
78
ENDCHAR
STARTCHAR Odieresis
ENCODING 214
SWIDTH 636 0
DWIDTH 7 0
BBX 6 9 0 0
BITMAP
48
00
78
84
84
84
84
84
78
ENDCHAR
STARTCHAR multiply
ENCODING 215
SWIDTH 636 0
DWIDTH 7 0
BBX 7 7 0 0
BITMAP
82
44
38
38
38
44
82
ENDCHAR
STARTCHAR Oslash
ENCODING 216
SWIDTH 636 0
DWIDTH 7 0
BBX 7 9 0 0
BITMAP
3A
44
8A
92
92
92
A2
44
B8
ENDCHAR
STARTCHAR Ugrave
ENCODING 217
SWIDTH 636 0
DWIDTH 7 0
BBX 6 9 0 0
BITMAP
20
10
84
84
84
84
84
84
78
ENDCHAR
STARTCHAR Uacute
ENCODING 218
SWIDTH 636 0
DWIDTH 7 0
BBX 6 9 0 0
BITMAP
10
20
84
84
84
84
84
84
78
ENDCHAR
STARTCHAR Ucircumflex
ENCODING 219
SWIDTH 636 0
DWIDTH 7 0
BBX 6 9 0 0
BITMAP
10
28
84
84
84
84
84
84
78
ENDCHAR
STARTCHAR Udieresis
ENCODING 220
SWIDTH 636 0
DWIDTH 7 0
BBX 6 9 0 0
BITMAP
48
00
84
84
84
84
84
84
78
ENDCHAR
STARTCHAR Yacute
ENCODING 221
SWIDTH 636 0
DWIDTH 7 0
BBX 5 9 1 0
BITMAP
10
20
88
88
50
20
20
20
20
ENDCHAR
STARTCHAR Thorn
ENCODING 222
SWIDTH 636 0
DWIDTH 7 0
BBX 6 8 0 0
BITMAP
80
F8
84
84
84
84
F8
80
ENDCHAR
STARTCHAR germandbls
ENCODING 223
SWIDTH 636 0
DWIDTH 7 0
BBX 6 10 0 -2
BITMAP
38
44
84
88
90
88
84
84
B8
80
ENDCHAR
STARTCHAR agrave
ENCODING 224
SWIDTH 636 0
DWIDTH 7 0
BBX 6 9 0 0
BITMAP
20
10
00
78
04
7C
84
84
7C
ENDCHAR
STARTCHAR aacute
ENCODING 225
SWIDTH 636 0
DWIDTH 7 0
BBX 6 9 0 0
BITMAP
10
20
00
78
04
7C
84
84
7C
ENDCHAR
STARTCHAR acircumflex
ENCODING 226
SWIDTH 636 0
DWIDTH 7 0
BBX 6 9 0 0
BITMAP
10
28
00
78
04
7C
84
84
7C
ENDCHAR
STARTCHAR atilde
ENCODING 227
SWIDTH 636 0
DWIDTH 7 0
BBX 6 9 0 0
BITMAP
28
50
00
78
04
7C
84
84
7C
ENDCHAR
STARTCHAR adieresis
ENCODING 228
SWIDTH 636 0
DWIDTH 7 0
BBX 6 8 0 0
BITMAP
48
00
78
04
7C
84
84
7C
ENDCHAR
STARTCHAR aring
ENCODING 229
SWIDTH 636 0
DWIDTH 7 0
BBX 6 9 0 0
BITMAP
10
28
10
78
04
7C
84
84
7C
ENDCHAR
STARTCHAR ae
ENCODING 230
SWIDTH 636 0
DWIDTH 7 0
BBX 6 6 0 0
BITMAP
78
14
7C
90
90
7C
ENDCHAR
STARTCHAR ccedilla
ENCODING 231
SWIDTH 636 0
DWIDTH 7 0
BBX 6 8 0 -2
BITMAP
78
84
80
80
84
78
10
30
ENDCHAR
STARTCHAR egrave
ENCODING 232
SWIDTH 636 0
DWIDTH 7 0
BBX 6 9 0 0
BITMAP
20
10
00
78
84
FC
80
84
78
ENDCHAR
STARTCHAR eacute
ENCODING 233
SWIDTH 636 0
DWIDTH 7 0
BBX 6 9 0 0
BITMAP
10
20
00
78
84
FC
80
84
78
ENDCHAR
STARTCHAR ecircumflex
ENCODING 234
SWIDTH 636 0
DWIDTH 7 0
BBX 6 9 0 0
BITMAP
10
28
00
78
84
FC
80
84
78
ENDCHAR
STARTCHAR edieresis
ENCODING 235
SWIDTH 636 0
DWIDTH 7 0
BBX 6 8 0 0
BITMAP
48
00
78
84
FC
80
84
78
ENDCHAR
STARTCHAR igrave
ENCODING 236
SWIDTH 636 0
DWIDTH 7 0
BBX 2 9 2 0
BITMAP
80
40
00
C0
40
40
40
40
40
ENDCHAR
STARTCHAR iacute
ENCODING 237
SWIDTH 636 0
DWIDTH 7 0
BBX 3 9 2 0
BITMAP
20
40
00
C0
40
40
40
40
40
ENDCHAR
STARTCHAR icircumflex
ENCODING 238
SWIDTH 636 0
DWIDTH 7 0
BBX 3 9 2 0
BITMAP
40
A0
00
C0
40
40
40
40
40
ENDCHAR
STARTCHAR idieresis
ENCODING 239
SWIDTH 636 0
DWIDTH 7 0
BBX 3 8 2 0
BITMAP
A0
00
C0
40
40
40
40
40
ENDCHAR
STARTCHAR eth
ENCODING 240
SWIDTH 636 0
DWIDTH 7 0
BBX 6 8 0 0
BITMAP
70
88
78
84
84
84
84
78
ENDCHAR
STARTCHAR ntilde
ENCODING 241
SWIDTH 636 0
DWIDTH 7 0
BBX 6 9 0 0
BITMAP
28
50
00
B8
C4
84
84
84
84
ENDCHAR
STARTCHAR ograve
ENCODING 242
SWIDTH 636 0
DWIDTH 7 0
BBX 6 9 0 0
BITMAP
20
10
00
78
84
84
84
84
78
ENDCHAR
STARTCHAR oacute
ENCODING 243
SWIDTH 636 0
DWIDTH 7 0
BBX 6 9 0 0
BITMAP
10
20
00
78
84
84
84
84
78
ENDCHAR
STARTCHAR ocircumflex
ENCODING 244
SWIDTH 636 0
DWIDTH 7 0
BBX 6 9 0 0
BITMAP
10
28
00
78
84
84
84
84
78
ENDCHAR
STARTCHAR otilde
ENCODING 245
SWIDTH 636 0
DWIDTH 7 0
BBX 6 9 0 0
BITMAP
28
50
00
78
84
84
84
84
78
ENDCHAR
STARTCHAR odieresis
ENCODING 246
SWIDTH 636 0
DWIDTH 7 0
BBX 6 8 0 0
BITMAP
48
00
78
84
84
84
84
78
ENDCHAR
STARTCHAR divide
ENCODING 247
SWIDTH 636 0
DWIDTH 7 0
BBX 5 5 1 0
BITMAP
20
00
F8
00
20
ENDCHAR
STARTCHAR oslash
ENCODING 248
SWIDTH 636 0
DWIDTH 7 0
BBX 6 6 0 0
BITMAP
74
88
94
A4
44
B8
ENDCHAR
STARTCHAR ugrave
ENCODING 249
SWIDTH 636 0
DWIDTH 7 0
BBX 6 9 0 0
BITMAP
20
10
00
84
84
84
84
8C
74
ENDCHAR
STARTCHAR uacute
ENCODING 250
SWIDTH 636 0
DWIDTH 7 0
BBX 6 9 0 0
BITMAP
10
20
00
84
84
84
84
8C
74
ENDCHAR
STARTCHAR ucircumflex
ENCODING 251
SWIDTH 636 0
DWIDTH 7 0
BBX 6 9 0 0
BITMAP
10
28
00
84
84
84
84
8C
74
ENDCHAR
STARTCHAR udieresis
ENCODING 252
SWIDTH 636 0
DWIDTH 7 0
BBX 6 8 0 0
BITMAP
48
00
84
84
84
84
8C
74
ENDCHAR
STARTCHAR yacute
ENCODING 253
SWIDTH 636 0
DWIDTH 7 0
BBX 6 11 0 -2
BITMAP
10
20
00
84
84
84
84
8C
74
04
78
ENDCHAR
STARTCHAR thorn
ENCODING 254
SWIDTH 636 0
DWIDTH 7 0
BBX 6 10 0 -2
BITMAP
80
80
F8
84
84
84
84
F8
80
80
ENDCHAR
STARTCHAR ydieresis
ENCODING 255
SWIDTH 636 0
DWIDTH 7 0
BBX 6 10 0 -2
BITMAP
48
00
84
84
84
84
8C
74
04
78
ENDCHAR
STARTCHAR afii10017
ENCODING 1040
SWIDTH 636 0
DWIDTH 7 0
BBX 6 8 0 0
BITMAP
78
84
84
84
FC
84
84
84
ENDCHAR
STARTCHAR afii10018
ENCODING 1041
SWIDTH 1000 0
DWIDTH 7 0
BBX 6 8 0 0
BITMAP
F8
80
80
F8
84
84
84
F8
ENDCHAR
STARTCHAR afii10019
ENCODING 1042
SWIDTH 636 0
DWIDTH 7 0
BBX 6 8 0 0
BITMAP
F8
84
84
F8
84
84
84
F8
ENDCHAR
STARTCHAR afii10020
ENCODING 1043
SWIDTH 636 0
DWIDTH 7 0
BBX 5 8 0 0
BITMAP
F8
80
80
80
80
80
80
80
ENDCHAR
STARTCHAR afii10021
ENCODING 1044
SWIDTH 636 0
DWIDTH 7 0
BBX 7 8 0 0
BITMAP
38
44
44
44
44
44
44
FE
ENDCHAR
STARTCHAR afii10022
ENCODING 1045
SWIDTH 636 0
DWIDTH 7 0
BBX 6 8 0 0
BITMAP
FC
80
80
F0
80
80
80
FC
ENDCHAR
STARTCHAR afii10024
ENCODING 1046
SWIDTH 636 0
DWIDTH 7 0
BBX 7 8 0 0
BITMAP
92
92
54
38
38
54
92
92
ENDCHAR
STARTCHAR afii10025
ENCODING 1047
SWIDTH 636 0
DWIDTH 7 0
BBX 6 8 0 0
BITMAP
F8
04
04
38
04
04
04
F8
ENDCHAR
STARTCHAR afii10026
ENCODING 1048
SWIDTH 636 0
DWIDTH 7 0
BBX 6 8 0 0
BITMAP
84
8C
94
A4
C4
84
84
84
ENDCHAR
STARTCHAR afii10027
ENCODING 1049
SWIDTH 636 0
DWIDTH 7 0
BBX 6 9 0 0
BITMAP
30
84
8C
94
A4
C4
84
84
84
ENDCHAR
STARTCHAR afii10028
ENCODING 1050
SWIDTH 636 0
DWIDTH 7 0
BBX 6 8 0 0
BITMAP
84
88
90
E0
E0
90
88
84
ENDCHAR
STARTCHAR afii10029
ENCODING 1051
SWIDTH 636 0
DWIDTH 7 0
BBX 6 8 0 0
BITMAP
30
30
48
48
48
84
84
84
ENDCHAR
STARTCHAR afii10030
ENCODING 1052
SWIDTH 636 0
DWIDTH 7 0
BBX 6 8 0 0
BITMAP
84
CC
B4
84
84
84
84
84
ENDCHAR
STARTCHAR afii10031
ENCODING 1053
SWIDTH 636 0
DWIDTH 7 0
BBX 6 8 0 0
BITMAP
84
84
84
84
FC
84
84
84
ENDCHAR
STARTCHAR afii10032
ENCODING 1054
SWIDTH 636 0
DWIDTH 7 0
BBX 6 8 0 0
BITMAP
78
84
84
84
84
84
84
78
ENDCHAR
STARTCHAR afii10033
ENCODING 1055
SWIDTH 636 0
DWIDTH 7 0
BBX 6 8 0 0
BITMAP
FC
84
84
84
84
84
84
84
ENDCHAR
STARTCHAR afii10034
ENCODING 1056
SWIDTH 636 0
DWIDTH 7 0
BBX 6 8 0 0
BITMAP
F8
84
84
F8
80
80
80
80
ENDCHAR
STARTCHAR afii10035
ENCODING 1057
SWIDTH 636 0
DWIDTH 7 0
BBX 6 8 0 0
BITMAP
78
84
80
80
80
80
84
78
ENDCHAR
STARTCHAR afii10036
ENCODING 1058
SWIDTH 636 0
DWIDTH 7 0
BBX 5 8 1 0
BITMAP
F8
20
20
20
20
20
20
20
ENDCHAR
STARTCHAR afii10037
ENCODING 1059
SWIDTH 636 0
DWIDTH 7 0
BBX 5 8 1 0
BITMAP
88
88
88
88
78
08
08
F0
ENDCHAR
STARTCHAR afii10038
ENCODING 1060
SWIDTH 636 0
DWIDTH 7 0
BBX 7 8 0 0
BITMAP
7C
92
92
92
7C
10
10
10
ENDCHAR
STARTCHAR afii10039
ENCODING 1061
SWIDTH 636 0
DWIDTH 7 0
BBX 6 8 0 0
BITMAP
84
84
48
30
30
48
84
84
ENDCHAR
STARTCHAR afii10040
ENCODING 1062
SWIDTH 636 0
DWIDTH 7 0
BBX 7 9 0 -1
BITMAP
84
84
84
84
84
84
84
7A
02
ENDCHAR
STARTCHAR afii10041
ENCODING 1063
SWIDTH 636 0
DWIDTH 7 0
BBX 6 8 0 0
BITMAP
84
84
84
84
7C
04
04
04
ENDCHAR
STARTCHAR afii10042
ENCODING 1064
SWIDTH 636 0
DWIDTH 7 0
BBX 7 8 0 0
BITMAP
92
92
92
92
92
92
92
FE
ENDCHAR
STARTCHAR afii10043
ENCODING 1065
SWIDTH 636 0
DWIDTH 7 0
BBX 7 9 0 -1
BITMAP
92
92
92
92
92
92
92
FE
02
ENDCHAR
STARTCHAR afii10044
ENCODING 1066
SWIDTH 636 0
DWIDTH 7 0
BBX 6 8 0 0
BITMAP
C0
40
40
40
78
44
44
78
ENDCHAR
STARTCHAR afii10045
ENCODING 1067
SWIDTH 636 0
DWIDTH 7 0
BBX 6 8 0 0
BITMAP
84
84
84
E4
94
94
94
E4
ENDCHAR
STARTCHAR afii10046
ENCODING 1068
SWIDTH 636 0
DWIDTH 7 0
BBX 6 8 0 0
BITMAP
80
80
80
80
F8
84
84
F8
ENDCHAR
STARTCHAR afii10047
ENCODING 1069
SWIDTH 636 0
DWIDTH 7 0
BBX 6 8 0 0
BITMAP
F8
04
04
3C
04
04
04
F8
ENDCHAR
STARTCHAR afii10048
ENCODING 1070
SWIDTH 636 0
DWIDTH 7 0
BBX 6 8 0 0
BITMAP
98
A4
A4
A4
E4
A4
A4
98
ENDCHAR
STARTCHAR afii10049
ENCODING 1071
SWIDTH 636 0
DWIDTH 7 0
BBX 6 8 0 0
BITMAP
7C
84
84
7C
14
24
44
84
ENDCHAR
STARTCHAR afii10065
ENCODING 1072
SWIDTH 636 0
DWIDTH 7 0
BBX 6 6 0 0
BITMAP
78
04
7C
84
84
7C
ENDCHAR
STARTCHAR afii10066
ENCODING 1073
SWIDTH 636 0
DWIDTH 7 0
BBX 6 7 0 0
BITMAP
78
80
B8
C4
84
84
F8
ENDCHAR
STARTCHAR afii10067
ENCODING 1074
SWIDTH 636 0
DWIDTH 7 0
BBX 6 6 0 0
BITMAP
F8
84
F8
84
84
F8
ENDCHAR
STARTCHAR afii10068
ENCODING 1075
SWIDTH 636 0
DWIDTH 7 0
BBX 6 6 0 0
BITMAP
FC
80
80
80
80
80
ENDCHAR
STARTCHAR afii10069
ENCODING 1076
SWIDTH 636 0
DWIDTH 7 0
BBX 6 6 0 0
BITMAP
30
48
48
48
48
FC
ENDCHAR
STARTCHAR afii10070
ENCODING 1077
SWIDTH 636 0
DWIDTH 7 0
BBX 6 6 0 0
BITMAP
78
84
FC
80
84
78
ENDCHAR
STARTCHAR afii10072
ENCODING 1078
SWIDTH 636 0
DWIDTH 7 0
BBX 7 6 0 0
BITMAP
92
54
38
38
54
92
ENDCHAR
STARTCHAR afii10073
ENCODING 1079
SWIDTH 636 0
DWIDTH 7 0
BBX 6 6 0 0
BITMAP
F8
04
78
04
04
F8
ENDCHAR
STARTCHAR afii10074
ENCODING 1080
SWIDTH 636 0
DWIDTH 7 0
BBX 6 6 0 0
BITMAP
84
84
84
84
8C
74
ENDCHAR
STARTCHAR afii10075
ENCODING 1081
SWIDTH 636 0
DWIDTH 7 0
BBX 6 8 0 0
BITMAP
78
00
84
84
84
84
8C
74
ENDCHAR
STARTCHAR afii10076
ENCODING 1082
SWIDTH 636 0
DWIDTH 7 0
BBX 5 6 1 0
BITMAP
88
90
E0
90
88
88
ENDCHAR
STARTCHAR afii10077
ENCODING 1083
SWIDTH 636 0
DWIDTH 7 0
BBX 6 6 0 0
BITMAP
30
48
48
84
84
84
ENDCHAR
STARTCHAR afii10078
ENCODING 1084
SWIDTH 636 0
DWIDTH 7 0
BBX 5 6 1 0
BITMAP
50
A8
A8
88
88
88
ENDCHAR
STARTCHAR afii10079
ENCODING 1085
SWIDTH 636 0
DWIDTH 7 0
BBX 6 6 0 0
BITMAP
84
84
84
FC
84
84
ENDCHAR
STARTCHAR afii10080
ENCODING 1086
SWIDTH 636 0
DWIDTH 7 0
BBX 6 6 0 0
BITMAP
78
84
84
84
84
78
ENDCHAR
STARTCHAR afii10081
ENCODING 1087
SWIDTH 636 0
DWIDTH 7 0
BBX 6 6 0 0
BITMAP
F8
84
84
84
84
84
ENDCHAR
STARTCHAR afii10082
ENCODING 1088
SWIDTH 636 0
DWIDTH 7 0
BBX 6 8 0 -2
BITMAP
F8
84
84
84
84
F8
80
80
ENDCHAR
STARTCHAR afii10083
ENCODING 1089
SWIDTH 636 0
DWIDTH 7 0
BBX 6 6 0 0
BITMAP
78
84
80
80
84
78
ENDCHAR
STARTCHAR afii10084
ENCODING 1090
SWIDTH 636 0
DWIDTH 7 0
BBX 5 6 1 0
BITMAP
F8
20
20
20
20
20
ENDCHAR
STARTCHAR afii10085
ENCODING 1091
SWIDTH 636 0
DWIDTH 7 0
BBX 6 8 0 -2
BITMAP
84
84
84
84
8C
74
04
78
ENDCHAR
STARTCHAR afii10086
ENCODING 1092
SWIDTH 636 0
DWIDTH 7 0
BBX 7 6 0 0
BITMAP
7C
92
92
92
7C
10
ENDCHAR
STARTCHAR afii10087
ENCODING 1093
SWIDTH 636 0
DWIDTH 7 0
BBX 6 6 0 0
BITMAP
84
48
30
30
48
84
ENDCHAR
STARTCHAR afii10088
ENCODING 1094
SWIDTH 636 0
DWIDTH 7 0
BBX 7 7 0 -1
BITMAP
84
84
84
84
84
7C
02
ENDCHAR
STARTCHAR afii10089
ENCODING 1095
SWIDTH 636 0
DWIDTH 7 0
BBX 6 6 0 0
BITMAP
84
84
84
7C
04
04
ENDCHAR
STARTCHAR afii10090
ENCODING 1096
SWIDTH 636 0
DWIDTH 7 0
BBX 5 6 1 0
BITMAP
A8
A8
A8
A8
A8
F8
ENDCHAR
STARTCHAR afii10091
ENCODING 1097
SWIDTH 636 0
DWIDTH 7 0
BBX 6 8 1 -2
BITMAP
A8
A8
A8
A8
A8
F8
04
04
ENDCHAR
STARTCHAR afii10092
ENCODING 1098
SWIDTH 636 0
DWIDTH 7 0
BBX 6 6 0 0
BITMAP
C0
40
78
44
44
78
ENDCHAR
STARTCHAR afii10093
ENCODING 1099
SWIDTH 636 0
DWIDTH 7 0
BBX 6 6 0 0
BITMAP
84
F4
8C
8C
8C
F4
ENDCHAR
STARTCHAR afii10094
ENCODING 1100
SWIDTH 636 0
DWIDTH 7 0
BBX 5 6 1 0
BITMAP
80
80
F0
88
88
F0
ENDCHAR
STARTCHAR afii10095
ENCODING 1101
SWIDTH 636 0
DWIDTH 7 0
BBX 6 6 0 0
BITMAP
78
84
3C
04
84
78
ENDCHAR
STARTCHAR afii10096
ENCODING 1102
SWIDTH 1000 0
DWIDTH 7 0
BBX 6 6 0 0
BITMAP
98
A4
A4
E4
A4
98
ENDCHAR
STARTCHAR afii10097
ENCODING 1103
SWIDTH 636 0
DWIDTH 7 0
BBX 6 6 0 0
BITMAP
7C
84
84
7C
44
84
ENDCHAR
ENDFONT
